<?xml version="1.0" standalone="no"?>
<!DOCTYPE svg PUBLIC "-//W3C//DTD SVG 20010904//EN"
 "http://www.w3.org/TR/2001/REC-SVG-20010904/DTD/svg10.dtd">
<svg version="1.0" xmlns="http://www.w3.org/2000/svg"
 width="512.000000pt" height="512.000000pt" viewBox="0 0 512.000000 512.000000"
 preserveAspectRatio="xMidYMid meet">
<metadata>
Created by potrace 1.14, written by Peter Selinger 2001-2017
</metadata>
<g transform="translate(0.000000,512.000000) scale(0.100000,-0.100000)"
fill="#000000" stroke="none">
<path d="M550 5105 c-197 -46 -342 -145 -444 -305 -52 -81 -61 -100 -85 -175
-19 -59 -20 -106 -18 -2075 l2 -2015 23 -65 c83 -230 288 -408 527 -455 101
-21 3909 -21 4000 -1 283 63 491 269 551 549 11 51 13 418 11 2027 -2 1964 -2
1965 -23 2025 -85 244 -233 392 -474 477 l-65 23 -1975 1 c-1566 1 -1986 -1
-2030 -11z"/>
</g>
</svg>
